<mxfile host="app.diagrams.net" modified="2023-08-14T06:26:23.560Z" agent="Mozilla/5.0 (Macintosh; Intel Mac OS X 10_15_7) AppleWebKit/605.1.15 (KHTML, like Gecko) Version/15.6.1 Safari/605.1.15" version="21.6.8" etag="vYtASkOQ-x477dwIDb8B" type="github">
  <diagram name="Page-1" id="L5gE9TaHChZpEfNY-t2x">
    <mxGraphModel>
      <root>
        <mxCell id="0" />
        <mxCell id="1" parent="0" />
      </root>
    </mxGraphModel>
  </diagram>
</mxfile>
